<mxfile host="app.diagrams.net" modified="2022-01-16T19:48:08.114Z" agent="5.0 (Windows)" etag="dYYohVT3RKLzTpp9j7c3" version="15.5.9" type="github">
  <diagram id="XRFOMiNzC7Ad4AriWgYu" name="Page-1">
    <mxGraphModel dx="782" dy="392" grid="1" gridSize="10" guides="1" tooltips="1" connect="1" arrows="1" fold="1" page="1" pageScale="1" pageWidth="850" pageHeight="1100" math="0" shadow="0">
      <root>
        <mxCell id="0" />
        <mxCell id="1" parent="0" />
        <mxCell id="Jr-zkCgD1a8gAcRai5kY-1" value="Server 3" style="rounded=0;whiteSpace=wrap;html=1;fillColor=#dae8fc;strokeColor=#6c8ebf;" vertex="1" parent="1">
          <mxGeometry x="440" y="270" width="70" height="50" as="geometry" />
        </mxCell>
        <mxCell id="Jr-zkCgD1a8gAcRai5kY-2" value="Server 1" style="rounded=0;whiteSpace=wrap;html=1;fillColor=#dae8fc;strokeColor=#6c8ebf;" vertex="1" parent="1">
          <mxGeometry x="130" y="270" width="70" height="50" as="geometry" />
        </mxCell>
        <mxCell id="Jr-zkCgD1a8gAcRai5kY-3" value="Server 2" style="rounded=0;whiteSpace=wrap;html=1;fillColor=#dae8fc;strokeColor=#6c8ebf;" vertex="1" parent="1">
          <mxGeometry x="280" y="270" width="70" height="50" as="geometry" />
        </mxCell>
        <mxCell id="Jr-zkCgD1a8gAcRai5kY-4" value="User 1" style="rounded=0;whiteSpace=wrap;html=1;fillColor=#f5f5f5;fontColor=#333333;strokeColor=#666666;" vertex="1" parent="1">
          <mxGeometry x="280" y="500" width="70" height="50" as="geometry" />
        </mxCell>
        <mxCell id="Jr-zkCgD1a8gAcRai5kY-5" value="" style="ellipse;whiteSpace=wrap;html=1;aspect=fixed;" vertex="1" parent="1">
          <mxGeometry x="295" y="370" width="40" height="40" as="geometry" />
        </mxCell>
        <mxCell id="Jr-zkCgD1a8gAcRai5kY-6" value="" style="endArrow=classic;html=1;rounded=0;entryX=0.5;entryY=1;entryDx=0;entryDy=0;exitX=0.05;exitY=0.325;exitDx=0;exitDy=0;exitPerimeter=0;startArrow=classic;startFill=1;" edge="1" parent="1" source="Jr-zkCgD1a8gAcRai5kY-5" target="Jr-zkCgD1a8gAcRai5kY-2">
          <mxGeometry width="50" height="50" relative="1" as="geometry">
            <mxPoint x="370" y="430" as="sourcePoint" />
            <mxPoint x="420" y="380" as="targetPoint" />
          </mxGeometry>
        </mxCell>
        <mxCell id="Jr-zkCgD1a8gAcRai5kY-7" value="" style="endArrow=classic;html=1;rounded=0;entryX=0.5;entryY=1;entryDx=0;entryDy=0;exitX=0.5;exitY=0;exitDx=0;exitDy=0;startArrow=classic;startFill=1;" edge="1" parent="1" source="Jr-zkCgD1a8gAcRai5kY-4" target="Jr-zkCgD1a8gAcRai5kY-5">
          <mxGeometry width="50" height="50" relative="1" as="geometry">
            <mxPoint x="307" y="423" as="sourcePoint" />
            <mxPoint x="175" y="330" as="targetPoint" />
          </mxGeometry>
        </mxCell>
      </root>
    </mxGraphModel>
  </diagram>
</mxfile>
